<mxfile host="app.diagrams.net" modified="2022-06-09T06:52:00.285Z" agent="5.0 (X11)" etag="VbLJCgLEdtR4fNJEm4KO" version="18.2.0" type="github">
  <diagram id="UwwP2Qq3AzNfzOclVscV" name="Page-1">
    <mxGraphModel dx="3416" dy="1539" grid="1" gridSize="10" guides="1" tooltips="1" connect="1" arrows="1" fold="1" page="1" pageScale="1" pageWidth="850" pageHeight="1100" math="0" shadow="0">
      <root>
        <mxCell id="0" />
        <mxCell id="1" parent="0" />
        <mxCell id="-UZiajmJjqbnYDhWoxUk-34" value="" style="rounded=1;whiteSpace=wrap;html=1;fontSize=10;strokeColor=default;dashed=1;fillColor=none;" vertex="1" parent="1">
          <mxGeometry x="-1600" y="-30" width="450" height="140" as="geometry" />
        </mxCell>
        <mxCell id="GT-CHdWPAFGHRpYFUDZQ-88" value="" style="rounded=1;whiteSpace=wrap;html=1;fontSize=10;strokeColor=default;dashed=1;fillColor=none;" parent="1" vertex="1">
          <mxGeometry x="-1560" y="-230" width="430" height="130" as="geometry" />
        </mxCell>
        <mxCell id="GT-CHdWPAFGHRpYFUDZQ-21" value="Entrada de Dados" style="shape=step;perimeter=stepPerimeter;whiteSpace=wrap;html=1;fixedSize=1;fontSize=10;strokeColor=default;size=0;" parent="1" vertex="1">
          <mxGeometry x="-930" y="-380" width="100" height="60" as="geometry" />
        </mxCell>
        <mxCell id="0-cCwCvb7G1Yeapmh6Bt-6" value="" style="edgeStyle=orthogonalEdgeStyle;rounded=0;orthogonalLoop=1;jettySize=auto;html=1;fontSize=10;" parent="1" source="0-cCwCvb7G1Yeapmh6Bt-3" target="0-cCwCvb7G1Yeapmh6Bt-5" edge="1">
          <mxGeometry relative="1" as="geometry" />
        </mxCell>
        <mxCell id="0-cCwCvb7G1Yeapmh6Bt-3" value="&lt;div style=&quot;font-size: 9px;&quot;&gt;Dados no formato MultiWoZ&lt;/div&gt;" style="rounded=1;whiteSpace=wrap;html=1;fontSize=9;" parent="1" vertex="1">
          <mxGeometry x="200" y="120" width="80" height="40" as="geometry" />
        </mxCell>
        <mxCell id="0-cCwCvb7G1Yeapmh6Bt-8" value="" style="edgeStyle=orthogonalEdgeStyle;rounded=0;orthogonalLoop=1;jettySize=auto;html=1;fontSize=10;" parent="1" source="0-cCwCvb7G1Yeapmh6Bt-5" target="0-cCwCvb7G1Yeapmh6Bt-7" edge="1">
          <mxGeometry relative="1" as="geometry" />
        </mxCell>
        <mxCell id="0-cCwCvb7G1Yeapmh6Bt-5" value="&lt;div style=&quot;font-size: 9px;&quot;&gt;Upload na ferramenta&lt;/div&gt;" style="rounded=0;whiteSpace=wrap;html=1;fontSize=9;" parent="1" vertex="1">
          <mxGeometry x="200" y="180" width="80" height="40" as="geometry" />
        </mxCell>
        <mxCell id="0-cCwCvb7G1Yeapmh6Bt-10" value="" style="edgeStyle=orthogonalEdgeStyle;rounded=0;orthogonalLoop=1;jettySize=auto;html=1;fontSize=10;" parent="1" source="0-cCwCvb7G1Yeapmh6Bt-7" target="0-cCwCvb7G1Yeapmh6Bt-9" edge="1">
          <mxGeometry relative="1" as="geometry" />
        </mxCell>
        <mxCell id="0-cCwCvb7G1Yeapmh6Bt-7" value="Configurar importação de ontologia" style="rounded=0;whiteSpace=wrap;html=1;fontSize=9;" parent="1" vertex="1">
          <mxGeometry x="200" y="240" width="80" height="40" as="geometry" />
        </mxCell>
        <mxCell id="0-cCwCvb7G1Yeapmh6Bt-13" value="" style="edgeStyle=orthogonalEdgeStyle;rounded=0;orthogonalLoop=1;jettySize=auto;html=1;fontSize=9;" parent="1" source="0-cCwCvb7G1Yeapmh6Bt-9" edge="1">
          <mxGeometry relative="1" as="geometry">
            <mxPoint x="240" y="380" as="targetPoint" />
          </mxGeometry>
        </mxCell>
        <mxCell id="0-cCwCvb7G1Yeapmh6Bt-9" value="&lt;font style=&quot;font-size: 8px;&quot;&gt;(Opcional) configurar endpoint de Active Learning&lt;/font&gt;" style="rounded=0;whiteSpace=wrap;html=1;fontSize=10;" parent="1" vertex="1">
          <mxGeometry x="200" y="300" width="80" height="40" as="geometry" />
        </mxCell>
        <mxCell id="0-cCwCvb7G1Yeapmh6Bt-11" value="ASSIS = Metodologia" style="text;html=1;strokeColor=none;fillColor=none;align=center;verticalAlign=middle;whiteSpace=wrap;rounded=0;fontSize=9;" parent="1" vertex="1">
          <mxGeometry x="175" y="70" width="130" height="30" as="geometry" />
        </mxCell>
        <mxCell id="0-cCwCvb7G1Yeapmh6Bt-14" value="Create Intentions" style="rounded=0;whiteSpace=wrap;html=1;fontSize=10;" parent="1" vertex="1">
          <mxGeometry x="399.8900000000001" y="500" width="80" height="40" as="geometry" />
        </mxCell>
        <mxCell id="0-cCwCvb7G1Yeapmh6Bt-15" value="Create Topics" style="rounded=0;whiteSpace=wrap;html=1;fontSize=10;" parent="1" vertex="1">
          <mxGeometry x="199.89000000000001" y="500" width="80" height="40" as="geometry" />
        </mxCell>
        <mxCell id="0-cCwCvb7G1Yeapmh6Bt-17" value="" style="edgeStyle=orthogonalEdgeStyle;rounded=0;orthogonalLoop=1;jettySize=auto;html=1;fontSize=9;" parent="1" edge="1">
          <mxGeometry relative="1" as="geometry">
            <mxPoint x="239.96" y="460" as="sourcePoint" />
            <mxPoint x="139.96" y="500" as="targetPoint" />
            <Array as="points">
              <mxPoint x="239.96" y="480" />
              <mxPoint x="139.96" y="480" />
            </Array>
          </mxGeometry>
        </mxCell>
        <mxCell id="0-cCwCvb7G1Yeapmh6Bt-103" value="" style="edgeStyle=orthogonalEdgeStyle;rounded=0;orthogonalLoop=1;jettySize=auto;html=1;fontSize=9;entryX=0.5;entryY=0;entryDx=0;entryDy=0;" parent="1" source="0-cCwCvb7G1Yeapmh6Bt-19" target="0-cCwCvb7G1Yeapmh6Bt-56" edge="1">
          <mxGeometry relative="1" as="geometry" />
        </mxCell>
        <mxCell id="0-cCwCvb7G1Yeapmh6Bt-19" value="Select Dialog" style="rounded=0;whiteSpace=wrap;html=1;fontSize=10;" parent="1" vertex="1">
          <mxGeometry x="99.96000000000001" y="500" width="80" height="40" as="geometry" />
        </mxCell>
        <mxCell id="0-cCwCvb7G1Yeapmh6Bt-31" value="" style="edgeStyle=orthogonalEdgeStyle;rounded=0;orthogonalLoop=1;jettySize=auto;html=1;fontSize=9;" parent="1" target="0-cCwCvb7G1Yeapmh6Bt-33" edge="1">
          <mxGeometry relative="1" as="geometry">
            <mxPoint x="140" y="960" as="sourcePoint" />
          </mxGeometry>
        </mxCell>
        <mxCell id="0-cCwCvb7G1Yeapmh6Bt-40" value="" style="edgeStyle=orthogonalEdgeStyle;rounded=0;orthogonalLoop=1;jettySize=auto;html=1;fontSize=9;" parent="1" source="0-cCwCvb7G1Yeapmh6Bt-32" target="0-cCwCvb7G1Yeapmh6Bt-39" edge="1">
          <mxGeometry relative="1" as="geometry" />
        </mxCell>
        <mxCell id="0-cCwCvb7G1Yeapmh6Bt-63" value="" style="edgeStyle=orthogonalEdgeStyle;rounded=0;orthogonalLoop=1;jettySize=auto;html=1;fontSize=9;entryX=0.5;entryY=0;entryDx=0;entryDy=0;" parent="1" source="0-cCwCvb7G1Yeapmh6Bt-32" target="0-cCwCvb7G1Yeapmh6Bt-66" edge="1">
          <mxGeometry relative="1" as="geometry">
            <mxPoint x="-140" y="700" as="targetPoint" />
          </mxGeometry>
        </mxCell>
        <mxCell id="0-cCwCvb7G1Yeapmh6Bt-32" value="All turns fully annotated?" style="rhombus;whiteSpace=wrap;html=1;fontSize=9;" parent="1" vertex="1">
          <mxGeometry x="99.99999999999999" y="660" width="80" height="80" as="geometry" />
        </mxCell>
        <mxCell id="0-cCwCvb7G1Yeapmh6Bt-50" value="" style="edgeStyle=orthogonalEdgeStyle;rounded=0;orthogonalLoop=1;jettySize=auto;html=1;fontSize=9;" parent="1" source="0-cCwCvb7G1Yeapmh6Bt-33" target="0-cCwCvb7G1Yeapmh6Bt-45" edge="1">
          <mxGeometry relative="1" as="geometry" />
        </mxCell>
        <mxCell id="0-cCwCvb7G1Yeapmh6Bt-33" value="Annotate intentions in turn &lt;i&gt;i&lt;/i&gt;" style="rounded=0;whiteSpace=wrap;html=1;fontSize=9;" parent="1" vertex="1">
          <mxGeometry x="99.99999999999999" y="1000" width="80" height="40" as="geometry" />
        </mxCell>
        <mxCell id="0-cCwCvb7G1Yeapmh6Bt-49" value="" style="edgeStyle=orthogonalEdgeStyle;rounded=0;orthogonalLoop=1;jettySize=auto;html=1;fontSize=9;" parent="1" source="0-cCwCvb7G1Yeapmh6Bt-34" target="0-cCwCvb7G1Yeapmh6Bt-45" edge="1">
          <mxGeometry relative="1" as="geometry">
            <Array as="points">
              <mxPoint x="239.99999999999994" y="1060" />
              <mxPoint x="140" y="1060" />
            </Array>
          </mxGeometry>
        </mxCell>
        <mxCell id="0-cCwCvb7G1Yeapmh6Bt-34" value="Annotate topic in turn &lt;i&gt;i&lt;/i&gt;" style="rounded=0;whiteSpace=wrap;html=1;fontSize=9;" parent="1" vertex="1">
          <mxGeometry x="200" y="1000" width="80" height="40" as="geometry" />
        </mxCell>
        <mxCell id="0-cCwCvb7G1Yeapmh6Bt-47" value="" style="edgeStyle=orthogonalEdgeStyle;rounded=0;orthogonalLoop=1;jettySize=auto;html=1;fontSize=9;" parent="1" source="0-cCwCvb7G1Yeapmh6Bt-35" target="0-cCwCvb7G1Yeapmh6Bt-45" edge="1">
          <mxGeometry relative="1" as="geometry">
            <mxPoint x="44.99999999999998" y="1120" as="targetPoint" />
            <Array as="points">
              <mxPoint x="44.99999999999998" y="1060" />
              <mxPoint x="140" y="1060" />
            </Array>
          </mxGeometry>
        </mxCell>
        <mxCell id="0-cCwCvb7G1Yeapmh6Bt-35" value="Annotate topics in turn &lt;i&gt;i&lt;/i&gt;" style="rounded=0;whiteSpace=wrap;html=1;fontSize=9;" parent="1" vertex="1">
          <mxGeometry x="4.999999999999979" y="1000" width="80" height="40" as="geometry" />
        </mxCell>
        <mxCell id="0-cCwCvb7G1Yeapmh6Bt-36" value="" style="edgeStyle=orthogonalEdgeStyle;rounded=0;orthogonalLoop=1;jettySize=auto;html=1;fontSize=9;entryX=0.5;entryY=0;entryDx=0;entryDy=0;" parent="1" target="0-cCwCvb7G1Yeapmh6Bt-34" edge="1">
          <mxGeometry relative="1" as="geometry">
            <mxPoint x="140" y="960" as="sourcePoint" />
            <mxPoint x="150" y="1010" as="targetPoint" />
            <Array as="points">
              <mxPoint x="140" y="980" />
              <mxPoint x="239.99999999999994" y="980" />
            </Array>
          </mxGeometry>
        </mxCell>
        <mxCell id="0-cCwCvb7G1Yeapmh6Bt-37" value="" style="edgeStyle=orthogonalEdgeStyle;rounded=0;orthogonalLoop=1;jettySize=auto;html=1;fontSize=9;entryX=0.5;entryY=0;entryDx=0;entryDy=0;" parent="1" target="0-cCwCvb7G1Yeapmh6Bt-35" edge="1">
          <mxGeometry relative="1" as="geometry">
            <mxPoint x="140" y="980" as="sourcePoint" />
            <mxPoint x="249.99999999999994" y="1030" as="targetPoint" />
            <Array as="points">
              <mxPoint x="44.99999999999998" y="980" />
            </Array>
          </mxGeometry>
        </mxCell>
        <mxCell id="0-cCwCvb7G1Yeapmh6Bt-42" value="" style="edgeStyle=orthogonalEdgeStyle;rounded=0;orthogonalLoop=1;jettySize=auto;html=1;fontSize=9;" parent="1" source="0-cCwCvb7G1Yeapmh6Bt-39" target="0-cCwCvb7G1Yeapmh6Bt-41" edge="1">
          <mxGeometry relative="1" as="geometry" />
        </mxCell>
        <mxCell id="0-cCwCvb7G1Yeapmh6Bt-39" value="Check turn &lt;i&gt;i &lt;/i&gt;" style="rounded=0;whiteSpace=wrap;html=1;fontSize=9;" parent="1" vertex="1">
          <mxGeometry x="99.99999999999999" y="760" width="80" height="40" as="geometry" />
        </mxCell>
        <mxCell id="0-cCwCvb7G1Yeapmh6Bt-44" value="" style="edgeStyle=orthogonalEdgeStyle;rounded=0;orthogonalLoop=1;jettySize=auto;html=1;fontSize=9;" parent="1" source="0-cCwCvb7G1Yeapmh6Bt-41" target="0-cCwCvb7G1Yeapmh6Bt-43" edge="1">
          <mxGeometry relative="1" as="geometry" />
        </mxCell>
        <mxCell id="0-cCwCvb7G1Yeapmh6Bt-41" value="Turn text&lt;br&gt;needs to be edited?" style="rhombus;whiteSpace=wrap;html=1;fontSize=9;" parent="1" vertex="1">
          <mxGeometry x="99.99999999999999" y="820" width="80" height="80" as="geometry" />
        </mxCell>
        <mxCell id="0-cCwCvb7G1Yeapmh6Bt-43" value="Edit text in turn &lt;i&gt;i&lt;/i&gt;" style="rounded=0;whiteSpace=wrap;html=1;fontSize=9;" parent="1" vertex="1">
          <mxGeometry x="99.99999999999999" y="920" width="80" height="40" as="geometry" />
        </mxCell>
        <mxCell id="0-cCwCvb7G1Yeapmh6Bt-52" value="" style="edgeStyle=orthogonalEdgeStyle;rounded=0;orthogonalLoop=1;jettySize=auto;html=1;fontSize=9;entryX=1;entryY=0.5;entryDx=0;entryDy=0;" parent="1" source="0-cCwCvb7G1Yeapmh6Bt-45" target="0-cCwCvb7G1Yeapmh6Bt-32" edge="1">
          <mxGeometry relative="1" as="geometry">
            <mxPoint x="319.9999999999999" y="1140" as="targetPoint" />
            <Array as="points">
              <mxPoint x="140" y="1130" />
              <mxPoint x="319.9999999999999" y="1130" />
              <mxPoint x="319.9999999999999" y="700" />
            </Array>
          </mxGeometry>
        </mxCell>
        <mxCell id="0-cCwCvb7G1Yeapmh6Bt-45" value="Choose next turn" style="rounded=0;whiteSpace=wrap;html=1;fontSize=9;" parent="1" vertex="1">
          <mxGeometry x="99.99999999999999" y="1080" width="80" height="30" as="geometry" />
        </mxCell>
        <mxCell id="0-cCwCvb7G1Yeapmh6Bt-53" value="No" style="text;html=1;strokeColor=none;fillColor=none;align=center;verticalAlign=middle;whiteSpace=wrap;rounded=0;fontSize=9;" parent="1" vertex="1">
          <mxGeometry x="119.99999999999999" y="730" width="60" height="30" as="geometry" />
        </mxCell>
        <mxCell id="0-cCwCvb7G1Yeapmh6Bt-54" value="Yes" style="text;html=1;strokeColor=none;fillColor=none;align=center;verticalAlign=middle;whiteSpace=wrap;rounded=0;fontSize=9;" parent="1" vertex="1">
          <mxGeometry x="124.99999999999999" y="630" width="60" height="30" as="geometry" />
        </mxCell>
        <mxCell id="0-cCwCvb7G1Yeapmh6Bt-114" value="" style="edgeStyle=orthogonalEdgeStyle;rounded=0;orthogonalLoop=1;jettySize=auto;html=1;fontSize=9;entryX=1;entryY=1;entryDx=0;entryDy=0;" parent="1" source="0-cCwCvb7G1Yeapmh6Bt-55" target="0-cCwCvb7G1Yeapmh6Bt-19" edge="1">
          <mxGeometry relative="1" as="geometry">
            <mxPoint x="235.00000000000023" y="740.0000000000002" as="targetPoint" />
            <Array as="points">
              <mxPoint x="235" y="670" />
              <mxPoint x="290" y="670" />
              <mxPoint x="290" y="570" />
              <mxPoint x="180" y="570" />
            </Array>
          </mxGeometry>
        </mxCell>
        <mxCell id="0-cCwCvb7G1Yeapmh6Bt-55" value="Delete dialog and choose next" style="rounded=0;whiteSpace=wrap;html=1;fontSize=9;" parent="1" vertex="1">
          <mxGeometry x="200" y="620" width="70" height="40" as="geometry" />
        </mxCell>
        <mxCell id="0-cCwCvb7G1Yeapmh6Bt-57" value="" style="edgeStyle=orthogonalEdgeStyle;rounded=0;orthogonalLoop=1;jettySize=auto;html=1;fontSize=9;" parent="1" source="0-cCwCvb7G1Yeapmh6Bt-56" edge="1">
          <mxGeometry relative="1" as="geometry">
            <mxPoint x="140" y="660" as="targetPoint" />
          </mxGeometry>
        </mxCell>
        <mxCell id="0-cCwCvb7G1Yeapmh6Bt-58" value="" style="edgeStyle=orthogonalEdgeStyle;rounded=0;orthogonalLoop=1;jettySize=auto;html=1;fontSize=9;entryX=0.5;entryY=0;entryDx=0;entryDy=0;" parent="1" source="0-cCwCvb7G1Yeapmh6Bt-56" target="0-cCwCvb7G1Yeapmh6Bt-55" edge="1">
          <mxGeometry relative="1" as="geometry">
            <Array as="points">
              <mxPoint x="234.99999999999994" y="600" />
            </Array>
          </mxGeometry>
        </mxCell>
        <mxCell id="0-cCwCvb7G1Yeapmh6Bt-56" value="Dialog is useful?" style="rhombus;whiteSpace=wrap;html=1;fontSize=9;" parent="1" vertex="1">
          <mxGeometry x="99.99999999999999" y="560" width="80" height="80" as="geometry" />
        </mxCell>
        <mxCell id="0-cCwCvb7G1Yeapmh6Bt-61" value="No" style="text;html=1;strokeColor=none;fillColor=none;align=center;verticalAlign=middle;whiteSpace=wrap;rounded=0;fontSize=9;" parent="1" vertex="1">
          <mxGeometry x="160" y="580" width="60" height="30" as="geometry" />
        </mxCell>
        <mxCell id="0-cCwCvb7G1Yeapmh6Bt-68" value="" style="edgeStyle=orthogonalEdgeStyle;rounded=0;orthogonalLoop=1;jettySize=auto;html=1;fontSize=9;" parent="1" source="0-cCwCvb7G1Yeapmh6Bt-66" target="0-cCwCvb7G1Yeapmh6Bt-67" edge="1">
          <mxGeometry relative="1" as="geometry" />
        </mxCell>
        <mxCell id="0-cCwCvb7G1Yeapmh6Bt-66" value="Mark dialog as finished" style="rounded=0;whiteSpace=wrap;html=1;fontSize=9;" parent="1" vertex="1">
          <mxGeometry x="-180" y="720" width="80" height="40" as="geometry" />
        </mxCell>
        <mxCell id="0-cCwCvb7G1Yeapmh6Bt-70" value="" style="edgeStyle=orthogonalEdgeStyle;rounded=0;orthogonalLoop=1;jettySize=auto;html=1;fontSize=9;" parent="1" source="0-cCwCvb7G1Yeapmh6Bt-67" target="0-cCwCvb7G1Yeapmh6Bt-69" edge="1">
          <mxGeometry relative="1" as="geometry" />
        </mxCell>
        <mxCell id="0-cCwCvb7G1Yeapmh6Bt-67" value="N min dialogs finished?" style="rhombus;whiteSpace=wrap;html=1;fontSize=9;" parent="1" vertex="1">
          <mxGeometry x="-180" y="780" width="80" height="80" as="geometry" />
        </mxCell>
        <mxCell id="0-cCwCvb7G1Yeapmh6Bt-74" value="" style="edgeStyle=orthogonalEdgeStyle;rounded=0;orthogonalLoop=1;jettySize=auto;html=1;fontSize=9;" parent="1" source="0-cCwCvb7G1Yeapmh6Bt-69" target="0-cCwCvb7G1Yeapmh6Bt-73" edge="1">
          <mxGeometry relative="1" as="geometry" />
        </mxCell>
        <mxCell id="0-cCwCvb7G1Yeapmh6Bt-69" value="Send to Active Learning" style="rounded=0;whiteSpace=wrap;html=1;fontSize=9;" parent="1" vertex="1">
          <mxGeometry x="-180" y="880" width="80" height="40" as="geometry" />
        </mxCell>
        <mxCell id="0-cCwCvb7G1Yeapmh6Bt-71" value="Yes" style="text;html=1;strokeColor=none;fillColor=none;align=center;verticalAlign=middle;whiteSpace=wrap;rounded=0;fontSize=9;" parent="1" vertex="1">
          <mxGeometry x="49.99999999999998" y="680" width="60" height="30" as="geometry" />
        </mxCell>
        <mxCell id="0-cCwCvb7G1Yeapmh6Bt-76" value="" style="edgeStyle=orthogonalEdgeStyle;rounded=0;orthogonalLoop=1;jettySize=auto;html=1;fontSize=9;" parent="1" source="0-cCwCvb7G1Yeapmh6Bt-73" target="0-cCwCvb7G1Yeapmh6Bt-75" edge="1">
          <mxGeometry relative="1" as="geometry" />
        </mxCell>
        <mxCell id="0-cCwCvb7G1Yeapmh6Bt-73" value="AL Model annotates random dialog from Dataset" style="rounded=0;whiteSpace=wrap;html=1;fontSize=9;" parent="1" vertex="1">
          <mxGeometry x="-180" y="940" width="80" height="40" as="geometry" />
        </mxCell>
        <mxCell id="0-cCwCvb7G1Yeapmh6Bt-84" value="" style="edgeStyle=orthogonalEdgeStyle;rounded=0;orthogonalLoop=1;jettySize=auto;html=1;fontSize=9;entryX=1;entryY=0.5;entryDx=0;entryDy=0;" parent="1" source="0-cCwCvb7G1Yeapmh6Bt-75" target="0-cCwCvb7G1Yeapmh6Bt-66" edge="1">
          <mxGeometry relative="1" as="geometry">
            <mxPoint x="-59.999999999999986" y="740" as="targetPoint" />
            <Array as="points">
              <mxPoint x="-140" y="1060" />
              <mxPoint x="-79.99999999999999" y="1060" />
              <mxPoint x="-79.99999999999999" y="740" />
            </Array>
          </mxGeometry>
        </mxCell>
        <mxCell id="0-cCwCvb7G1Yeapmh6Bt-75" value="Operator checks and fixes any errors in annotation" style="rounded=0;whiteSpace=wrap;html=1;fontSize=9;" parent="1" vertex="1">
          <mxGeometry x="-180" y="1000" width="80" height="40" as="geometry" />
        </mxCell>
        <mxCell id="0-cCwCvb7G1Yeapmh6Bt-81" value="Yes" style="text;html=1;strokeColor=none;fillColor=none;align=center;verticalAlign=middle;whiteSpace=wrap;rounded=0;fontSize=9;" parent="1" vertex="1">
          <mxGeometry x="-160" y="850" width="60" height="30" as="geometry" />
        </mxCell>
        <mxCell id="0-cCwCvb7G1Yeapmh6Bt-82" value="No" style="text;html=1;strokeColor=none;fillColor=none;align=center;verticalAlign=middle;whiteSpace=wrap;rounded=0;fontSize=9;" parent="1" vertex="1">
          <mxGeometry x="-220" y="800" width="60" height="30" as="geometry" />
        </mxCell>
        <mxCell id="0-cCwCvb7G1Yeapmh6Bt-86" value="" style="edgeStyle=orthogonalEdgeStyle;rounded=0;orthogonalLoop=1;jettySize=auto;html=1;fontSize=9;" parent="1" source="0-cCwCvb7G1Yeapmh6Bt-85" edge="1">
          <mxGeometry relative="1" as="geometry">
            <mxPoint x="239.96" y="500" as="targetPoint" />
          </mxGeometry>
        </mxCell>
        <mxCell id="0-cCwCvb7G1Yeapmh6Bt-92" value="" style="edgeStyle=orthogonalEdgeStyle;rounded=0;orthogonalLoop=1;jettySize=auto;html=1;fontSize=9;entryX=0.5;entryY=0;entryDx=0;entryDy=0;" parent="1" source="0-cCwCvb7G1Yeapmh6Bt-85" target="0-cCwCvb7G1Yeapmh6Bt-93" edge="1">
          <mxGeometry relative="1" as="geometry">
            <mxPoint x="429.96000000000004" y="489.9999999999999" as="targetPoint" />
          </mxGeometry>
        </mxCell>
        <mxCell id="0-cCwCvb7G1Yeapmh6Bt-85" value="All dialogs annotated?" style="rhombus;whiteSpace=wrap;html=1;fontSize=9;" parent="1" vertex="1">
          <mxGeometry x="199.89000000000001" y="380" width="80" height="80" as="geometry" />
        </mxCell>
        <mxCell id="0-cCwCvb7G1Yeapmh6Bt-89" value="No" style="text;html=1;strokeColor=none;fillColor=none;align=center;verticalAlign=middle;whiteSpace=wrap;rounded=0;fontSize=9;" parent="1" vertex="1">
          <mxGeometry x="224.96" y="450" width="60" height="30" as="geometry" />
        </mxCell>
        <mxCell id="0-cCwCvb7G1Yeapmh6Bt-93" value="Download annotated Json" style="rounded=0;whiteSpace=wrap;html=1;fontSize=9;" parent="1" vertex="1">
          <mxGeometry x="499.96000000000004" y="500" width="80" height="40" as="geometry" />
        </mxCell>
        <mxCell id="0-cCwCvb7G1Yeapmh6Bt-94" value="Yes" style="text;html=1;strokeColor=none;fillColor=none;align=center;verticalAlign=middle;whiteSpace=wrap;rounded=0;fontSize=9;" parent="1" vertex="1">
          <mxGeometry x="269.96000000000004" y="390" width="60" height="30" as="geometry" />
        </mxCell>
        <mxCell id="0-cCwCvb7G1Yeapmh6Bt-95" value="&lt;div&gt;Expandir&lt;/div&gt;" style="text;html=1;strokeColor=none;fillColor=none;align=center;verticalAlign=middle;whiteSpace=wrap;rounded=0;fontSize=9;" parent="1" vertex="1">
          <mxGeometry x="280" y="245" width="60" height="30" as="geometry" />
        </mxCell>
        <mxCell id="0-cCwCvb7G1Yeapmh6Bt-96" value="&lt;div&gt;Expandir&lt;/div&gt;" style="text;html=1;strokeColor=none;fillColor=none;align=center;verticalAlign=middle;whiteSpace=wrap;rounded=0;fontSize=9;" parent="1" vertex="1">
          <mxGeometry x="-240" y="945" width="60" height="30" as="geometry" />
        </mxCell>
        <mxCell id="0-cCwCvb7G1Yeapmh6Bt-99" value="" style="edgeStyle=orthogonalEdgeStyle;rounded=0;orthogonalLoop=1;jettySize=auto;html=1;fontSize=9;exitX=0.5;exitY=1;exitDx=0;exitDy=0;" parent="1" edge="1">
          <mxGeometry relative="1" as="geometry">
            <mxPoint x="239.92000000000004" y="460" as="sourcePoint" />
            <mxPoint x="339.9200000000001" y="500" as="targetPoint" />
            <Array as="points">
              <mxPoint x="239.92000000000004" y="480" />
              <mxPoint x="339.9200000000001" y="480" />
            </Array>
          </mxGeometry>
        </mxCell>
        <mxCell id="0-cCwCvb7G1Yeapmh6Bt-104" value="" style="edgeStyle=orthogonalEdgeStyle;rounded=0;orthogonalLoop=1;jettySize=auto;html=1;fontSize=9;exitX=0.5;exitY=1;exitDx=0;exitDy=0;entryX=0.5;entryY=0;entryDx=0;entryDy=0;" parent="1" target="0-cCwCvb7G1Yeapmh6Bt-14" edge="1">
          <mxGeometry relative="1" as="geometry">
            <mxPoint x="240.00000000000009" y="460" as="sourcePoint" />
            <mxPoint x="340.00000000000006" y="500" as="targetPoint" />
            <Array as="points">
              <mxPoint x="240" y="480" />
              <mxPoint x="440" y="480" />
            </Array>
          </mxGeometry>
        </mxCell>
        <mxCell id="0-cCwCvb7G1Yeapmh6Bt-105" value="" style="edgeStyle=orthogonalEdgeStyle;rounded=0;orthogonalLoop=1;jettySize=auto;html=1;fontSize=9;entryX=0;entryY=0.5;entryDx=0;entryDy=0;exitX=0;exitY=0.5;exitDx=0;exitDy=0;" parent="1" source="0-cCwCvb7G1Yeapmh6Bt-67" target="0-cCwCvb7G1Yeapmh6Bt-85" edge="1">
          <mxGeometry relative="1" as="geometry">
            <mxPoint x="-380" y="830" as="sourcePoint" />
            <mxPoint x="-220.03999999999974" y="470.0000000000002" as="targetPoint" />
            <Array as="points">
              <mxPoint x="-220" y="820" />
              <mxPoint x="-220" y="420" />
            </Array>
          </mxGeometry>
        </mxCell>
        <mxCell id="0-cCwCvb7G1Yeapmh6Bt-106" value="Arrumar loop infinito de dialogo marcado como terminado " style="text;html=1;strokeColor=none;fillColor=none;align=center;verticalAlign=middle;whiteSpace=wrap;rounded=0;fontSize=9;" parent="1" vertex="1">
          <mxGeometry x="-180" y="640" width="100" height="30" as="geometry" />
        </mxCell>
        <mxCell id="0-cCwCvb7G1Yeapmh6Bt-107" value="Expandir" style="text;html=1;strokeColor=none;fillColor=none;align=center;verticalAlign=middle;whiteSpace=wrap;rounded=0;fontSize=9;" parent="1" vertex="1">
          <mxGeometry x="309.89" y="550" width="60" height="30" as="geometry" />
        </mxCell>
        <mxCell id="0-cCwCvb7G1Yeapmh6Bt-110" value="" style="edgeStyle=orthogonalEdgeStyle;rounded=0;orthogonalLoop=1;jettySize=auto;html=1;fontSize=9;" parent="1" source="0-cCwCvb7G1Yeapmh6Bt-108" target="0-cCwCvb7G1Yeapmh6Bt-109" edge="1">
          <mxGeometry relative="1" as="geometry" />
        </mxCell>
        <mxCell id="0-cCwCvb7G1Yeapmh6Bt-108" value="Preciso criar entidade nova?" style="rhombus;whiteSpace=wrap;html=1;fontSize=9;" parent="1" vertex="1">
          <mxGeometry x="399.96" y="840" width="80" height="80" as="geometry" />
        </mxCell>
        <mxCell id="0-cCwCvb7G1Yeapmh6Bt-112" value="" style="edgeStyle=orthogonalEdgeStyle;rounded=0;orthogonalLoop=1;jettySize=auto;html=1;fontSize=9;entryX=0.5;entryY=0;entryDx=0;entryDy=0;" parent="1" source="0-cCwCvb7G1Yeapmh6Bt-109" target="0-cCwCvb7G1Yeapmh6Bt-108" edge="1">
          <mxGeometry relative="1" as="geometry">
            <mxPoint x="509.96" y="790" as="targetPoint" />
            <Array as="points">
              <mxPoint x="439.96" y="1010" />
              <mxPoint x="499.96" y="1010" />
              <mxPoint x="499.96" y="820" />
              <mxPoint x="439.96" y="820" />
            </Array>
          </mxGeometry>
        </mxCell>
        <mxCell id="0-cCwCvb7G1Yeapmh6Bt-109" value="Create Entities" style="rounded=0;whiteSpace=wrap;html=1;fontSize=10;" parent="1" vertex="1">
          <mxGeometry x="399.96" y="945" width="80" height="40" as="geometry" />
        </mxCell>
        <mxCell id="GT-CHdWPAFGHRpYFUDZQ-9" value="&lt;font style=&quot;font-size: 10px;&quot;&gt;Etapa de&lt;br style=&quot;font-size: 10px;&quot;&gt;importação&lt;br style=&quot;font-size: 10px;&quot;&gt;&lt;/font&gt;" style="shape=step;perimeter=stepPerimeter;whiteSpace=wrap;html=1;fixedSize=1;fontSize=10;strokeColor=default;size=20;" parent="1" vertex="1">
          <mxGeometry x="-770" y="-380" width="100" height="60" as="geometry" />
        </mxCell>
        <mxCell id="GT-CHdWPAFGHRpYFUDZQ-16" value="&lt;font style=&quot;font-size: 10px;&quot;&gt;Etapa de&lt;br style=&quot;font-size: 10px;&quot;&gt;configuração&lt;br style=&quot;font-size: 10px;&quot;&gt;&lt;/font&gt;" style="shape=step;perimeter=stepPerimeter;whiteSpace=wrap;html=1;fixedSize=1;fontSize=10;strokeColor=default;size=20;" parent="1" vertex="1">
          <mxGeometry x="-850" y="-380" width="100" height="60" as="geometry" />
        </mxCell>
        <mxCell id="GT-CHdWPAFGHRpYFUDZQ-18" value="Anotação de Dialogos" style="shape=hexagon;perimeter=hexagonPerimeter2;whiteSpace=wrap;html=1;fixedSize=1;fontSize=10;strokeColor=default;size=20;" parent="1" vertex="1">
          <mxGeometry x="-690" y="-410" width="110" height="60" as="geometry" />
        </mxCell>
        <mxCell id="GT-CHdWPAFGHRpYFUDZQ-19" value="Criação de Entidades, Tópicos e Intenções" style="shape=hexagon;perimeter=hexagonPerimeter2;whiteSpace=wrap;html=1;fixedSize=1;fontSize=10;strokeColor=default;size=20;" parent="1" vertex="1">
          <mxGeometry x="-690" y="-350" width="110" height="60" as="geometry" />
        </mxCell>
        <mxCell id="GT-CHdWPAFGHRpYFUDZQ-20" value="Exportação de&lt;br style=&quot;font-size: 10px;&quot;&gt;dialogos" style="shape=hexagon;perimeter=hexagonPerimeter2;whiteSpace=wrap;html=1;fixedSize=1;fontSize=10;strokeColor=default;size=20;" parent="1" vertex="1">
          <mxGeometry x="-600" y="-380" width="110" height="60" as="geometry" />
        </mxCell>
        <mxCell id="GT-CHdWPAFGHRpYFUDZQ-51" value="" style="edgeStyle=orthogonalEdgeStyle;rounded=0;orthogonalLoop=1;jettySize=auto;html=1;fontSize=10;" parent="1" source="GT-CHdWPAFGHRpYFUDZQ-47" target="GT-CHdWPAFGHRpYFUDZQ-50" edge="1">
          <mxGeometry relative="1" as="geometry" />
        </mxCell>
        <mxCell id="GT-CHdWPAFGHRpYFUDZQ-47" value="Endpoint adicionado e funcional?" style="rhombus;whiteSpace=wrap;html=1;fontSize=10;strokeColor=default;" parent="1" vertex="1">
          <mxGeometry x="-1450" y="-220" width="80" height="80" as="geometry" />
        </mxCell>
        <mxCell id="GT-CHdWPAFGHRpYFUDZQ-56" value="" style="edgeStyle=orthogonalEdgeStyle;rounded=0;orthogonalLoop=1;jettySize=auto;html=1;fontSize=10;" parent="1" source="GT-CHdWPAFGHRpYFUDZQ-50" target="GT-CHdWPAFGHRpYFUDZQ-55" edge="1">
          <mxGeometry relative="1" as="geometry" />
        </mxCell>
        <mxCell id="GT-CHdWPAFGHRpYFUDZQ-50" value="Pegar configurações do servidor" style="rounded=0;whiteSpace=wrap;html=1;fontSize=10;strokeColor=default;" parent="1" vertex="1">
          <mxGeometry x="-1340" y="-200" width="80" height="40" as="geometry" />
        </mxCell>
        <mxCell id="GT-CHdWPAFGHRpYFUDZQ-53" value="Não" style="text;html=1;strokeColor=none;fillColor=none;align=center;verticalAlign=middle;whiteSpace=wrap;rounded=0;fontSize=10;" parent="1" vertex="1">
          <mxGeometry x="-1375" y="-140" width="30" height="15" as="geometry" />
        </mxCell>
        <mxCell id="GT-CHdWPAFGHRpYFUDZQ-63" value="" style="edgeStyle=orthogonalEdgeStyle;rounded=0;orthogonalLoop=1;jettySize=auto;html=1;fontSize=10;entryX=0;entryY=0.5;entryDx=0;entryDy=0;" parent="1" source="GT-CHdWPAFGHRpYFUDZQ-55" target="GT-CHdWPAFGHRpYFUDZQ-87" edge="1">
          <mxGeometry relative="1" as="geometry">
            <mxPoint x="-1120" y="-180" as="targetPoint" />
          </mxGeometry>
        </mxCell>
        <mxCell id="GT-CHdWPAFGHRpYFUDZQ-55" value="Pegar dialogos do servidor" style="rounded=0;whiteSpace=wrap;html=1;fontSize=10;strokeColor=default;" parent="1" vertex="1">
          <mxGeometry x="-1240" y="-200" width="80" height="40" as="geometry" />
        </mxCell>
        <mxCell id="GT-CHdWPAFGHRpYFUDZQ-64" value="" style="edgeStyle=orthogonalEdgeStyle;rounded=0;orthogonalLoop=1;jettySize=auto;html=1;fontSize=10;entryX=0;entryY=0.5;entryDx=0;entryDy=0;" parent="1" source="GT-CHdWPAFGHRpYFUDZQ-57" target="GT-CHdWPAFGHRpYFUDZQ-87" edge="1">
          <mxGeometry relative="1" as="geometry">
            <mxPoint x="-1120" y="-180" as="targetPoint" />
            <Array as="points">
              <mxPoint x="-1140" y="-125" />
              <mxPoint x="-1140" y="-180" />
            </Array>
          </mxGeometry>
        </mxCell>
        <mxCell id="GT-CHdWPAFGHRpYFUDZQ-57" value="Upload de dados do usuário" style="rounded=0;whiteSpace=wrap;html=1;fontSize=10;strokeColor=default;" parent="1" vertex="1">
          <mxGeometry x="-1290" y="-145" width="80" height="40" as="geometry" />
        </mxCell>
        <mxCell id="GT-CHdWPAFGHRpYFUDZQ-61" value="" style="endArrow=classic;html=1;rounded=0;fontSize=10;exitX=0.5;exitY=1;exitDx=0;exitDy=0;entryX=0;entryY=0.5;entryDx=0;entryDy=0;" parent="1" source="GT-CHdWPAFGHRpYFUDZQ-47" target="GT-CHdWPAFGHRpYFUDZQ-57" edge="1">
          <mxGeometry width="50" height="50" relative="1" as="geometry">
            <mxPoint x="-1320" y="-150" as="sourcePoint" />
            <mxPoint x="-1160" y="-150" as="targetPoint" />
            <Array as="points">
              <mxPoint x="-1410" y="-125" />
            </Array>
          </mxGeometry>
        </mxCell>
        <mxCell id="GT-CHdWPAFGHRpYFUDZQ-87" value="Etapa de Configuração" style="rounded=0;whiteSpace=wrap;html=1;fontSize=10;strokeColor=default;fillColor=#CCCCCC;" parent="1" vertex="1">
          <mxGeometry x="-1110" y="-200" width="80" height="40" as="geometry" />
        </mxCell>
        <mxCell id="GT-CHdWPAFGHRpYFUDZQ-89" value="Entrada de Dados" style="text;html=1;strokeColor=none;fillColor=none;align=center;verticalAlign=middle;whiteSpace=wrap;rounded=0;dashed=1;fontSize=10;" parent="1" vertex="1">
          <mxGeometry x="-1410" y="-260" width="100" height="30" as="geometry" />
        </mxCell>
        <mxCell id="GT-CHdWPAFGHRpYFUDZQ-97" value="" style="edgeStyle=orthogonalEdgeStyle;rounded=0;orthogonalLoop=1;jettySize=auto;html=1;fontSize=10;" parent="1" source="GT-CHdWPAFGHRpYFUDZQ-95" target="GT-CHdWPAFGHRpYFUDZQ-47" edge="1">
          <mxGeometry relative="1" as="geometry" />
        </mxCell>
        <mxCell id="GT-CHdWPAFGHRpYFUDZQ-95" value="(Opcional) Input de endpoint de dados" style="rounded=0;whiteSpace=wrap;html=1;fontSize=10;strokeColor=default;" parent="1" vertex="1">
          <mxGeometry x="-1550" y="-200" width="80" height="40" as="geometry" />
        </mxCell>
        <mxCell id="GT-CHdWPAFGHRpYFUDZQ-99" value="Sim" style="text;html=1;strokeColor=none;fillColor=none;align=center;verticalAlign=middle;whiteSpace=wrap;rounded=0;fontSize=10;" parent="1" vertex="1">
          <mxGeometry x="-1375" y="-200" width="30" height="15" as="geometry" />
        </mxCell>
        <mxCell id="GT-CHdWPAFGHRpYFUDZQ-103" value="Etapa de Configuração" style="text;html=1;strokeColor=none;fillColor=none;align=center;verticalAlign=middle;whiteSpace=wrap;rounded=0;dashed=1;fontSize=10;" parent="1" vertex="1">
          <mxGeometry x="-1435" y="-60" width="140" height="30" as="geometry" />
        </mxCell>
        <mxCell id="GT-CHdWPAFGHRpYFUDZQ-106" value="" style="edgeStyle=orthogonalEdgeStyle;rounded=0;orthogonalLoop=1;jettySize=auto;html=1;fontSize=10;entryX=0;entryY=0.5;entryDx=0;entryDy=0;exitX=1;exitY=0.5;exitDx=0;exitDy=0;" parent="1" source="GT-CHdWPAFGHRpYFUDZQ-135" edge="1" target="-UZiajmJjqbnYDhWoxUk-33">
          <mxGeometry relative="1" as="geometry">
            <mxPoint x="-1139" y="49" as="targetPoint" />
            <Array as="points">
              <mxPoint x="-1170" y="20" />
              <mxPoint x="-1170" y="20" />
            </Array>
            <mxPoint x="-1179" y="19" as="sourcePoint" />
          </mxGeometry>
        </mxCell>
        <mxCell id="GT-CHdWPAFGHRpYFUDZQ-108" value="" style="edgeStyle=orthogonalEdgeStyle;rounded=0;orthogonalLoop=1;jettySize=auto;html=1;fontSize=10;entryX=0;entryY=0.5;entryDx=0;entryDy=0;" parent="1" edge="1" target="-UZiajmJjqbnYDhWoxUk-33">
          <mxGeometry relative="1" as="geometry">
            <mxPoint x="-1139" y="49" as="targetPoint" />
            <Array as="points">
              <mxPoint x="-1159" y="79" />
              <mxPoint x="-1159" y="20" />
            </Array>
            <mxPoint x="-1179" y="79" as="sourcePoint" />
          </mxGeometry>
        </mxCell>
        <mxCell id="GT-CHdWPAFGHRpYFUDZQ-126" value="" style="edgeStyle=orthogonalEdgeStyle;rounded=0;orthogonalLoop=1;jettySize=auto;html=1;fontSize=10;" parent="1" source="GT-CHdWPAFGHRpYFUDZQ-114" target="GT-CHdWPAFGHRpYFUDZQ-116" edge="1">
          <mxGeometry relative="1" as="geometry" />
        </mxCell>
        <mxCell id="GT-CHdWPAFGHRpYFUDZQ-114" value="Entrada de Dados" style="rounded=0;whiteSpace=wrap;html=1;fontSize=10;strokeColor=default;fillColor=#CCCCCC;" parent="1" vertex="1">
          <mxGeometry x="-1690" width="80" height="40" as="geometry" />
        </mxCell>
        <mxCell id="GT-CHdWPAFGHRpYFUDZQ-123" value="" style="edgeStyle=orthogonalEdgeStyle;rounded=0;orthogonalLoop=1;jettySize=auto;html=1;fontSize=10;" parent="1" source="GT-CHdWPAFGHRpYFUDZQ-116" edge="1">
          <mxGeometry relative="1" as="geometry">
            <mxPoint x="-1480" y="20" as="targetPoint" />
          </mxGeometry>
        </mxCell>
        <mxCell id="GT-CHdWPAFGHRpYFUDZQ-116" value="(Opcional) input de endpoint de anot. automática" style="rounded=0;whiteSpace=wrap;html=1;fontSize=10;strokeColor=default;" parent="1" vertex="1">
          <mxGeometry x="-1580" width="80" height="40" as="geometry" />
        </mxCell>
        <mxCell id="GT-CHdWPAFGHRpYFUDZQ-127" value="" style="edgeStyle=orthogonalEdgeStyle;rounded=0;orthogonalLoop=1;jettySize=auto;html=1;fontSize=10;" parent="1" source="GT-CHdWPAFGHRpYFUDZQ-117" target="GT-CHdWPAFGHRpYFUDZQ-121" edge="1">
          <mxGeometry relative="1" as="geometry" />
        </mxCell>
        <mxCell id="GT-CHdWPAFGHRpYFUDZQ-117" value="(Opcional) user configura importação" style="rounded=0;whiteSpace=wrap;html=1;fontSize=10;strokeColor=default;" parent="1" vertex="1">
          <mxGeometry x="-1480" width="80" height="40" as="geometry" />
        </mxCell>
        <mxCell id="GT-CHdWPAFGHRpYFUDZQ-132" value="" style="edgeStyle=orthogonalEdgeStyle;rounded=0;orthogonalLoop=1;jettySize=auto;html=1;fontSize=10;" parent="1" source="GT-CHdWPAFGHRpYFUDZQ-121" edge="1">
          <mxGeometry relative="1" as="geometry">
            <mxPoint x="-1260" y="20" as="targetPoint" />
          </mxGeometry>
        </mxCell>
        <mxCell id="-UZiajmJjqbnYDhWoxUk-25" value="" style="edgeStyle=orthogonalEdgeStyle;rounded=0;orthogonalLoop=1;jettySize=auto;html=1;fontSize=9;entryX=0;entryY=0.5;entryDx=0;entryDy=0;" edge="1" parent="1" source="GT-CHdWPAFGHRpYFUDZQ-121" target="GT-CHdWPAFGHRpYFUDZQ-137">
          <mxGeometry relative="1" as="geometry">
            <Array as="points">
              <mxPoint x="-1335" y="80" />
            </Array>
          </mxGeometry>
        </mxCell>
        <mxCell id="GT-CHdWPAFGHRpYFUDZQ-121" value="Endpoint configurado?" style="rhombus;whiteSpace=wrap;html=1;fontSize=10;strokeColor=default;" parent="1" vertex="1">
          <mxGeometry x="-1375" y="-20" width="80" height="80" as="geometry" />
        </mxCell>
        <mxCell id="GT-CHdWPAFGHRpYFUDZQ-134" value="Sim" style="text;html=1;strokeColor=none;fillColor=none;align=center;verticalAlign=middle;whiteSpace=wrap;rounded=0;fontSize=10;" parent="1" vertex="1">
          <mxGeometry x="-1295" width="30" height="15" as="geometry" />
        </mxCell>
        <mxCell id="GT-CHdWPAFGHRpYFUDZQ-135" value="Ferramenta tria diálogos relevantes do banco de dados" style="rounded=0;whiteSpace=wrap;html=1;fontSize=9;strokeColor=default;" parent="1" vertex="1">
          <mxGeometry x="-1260" width="80" height="40" as="geometry" />
        </mxCell>
        <mxCell id="GT-CHdWPAFGHRpYFUDZQ-137" value="Usuário envia diálogos" style="rounded=0;whiteSpace=wrap;html=1;fontSize=9;strokeColor=default;" parent="1" vertex="1">
          <mxGeometry x="-1260" y="60" width="80" height="40" as="geometry" />
        </mxCell>
        <mxCell id="-UZiajmJjqbnYDhWoxUk-1" value="" style="rounded=1;whiteSpace=wrap;html=1;dashed=1;" vertex="1" parent="1">
          <mxGeometry x="600" y="-245" width="130" height="240" as="geometry" />
        </mxCell>
        <mxCell id="-UZiajmJjqbnYDhWoxUk-2" value="" style="rounded=1;whiteSpace=wrap;html=1;dashed=1;" vertex="1" parent="1">
          <mxGeometry x="305" y="-245" width="215" height="240" as="geometry" />
        </mxCell>
        <mxCell id="-UZiajmJjqbnYDhWoxUk-3" value="" style="rounded=1;whiteSpace=wrap;html=1;dashed=1;" vertex="1" parent="1">
          <mxGeometry x="110" y="-245" width="100" height="240" as="geometry" />
        </mxCell>
        <mxCell id="-UZiajmJjqbnYDhWoxUk-4" value="Ferramenta de chats" style="rounded=0;whiteSpace=wrap;html=1;" vertex="1" parent="1">
          <mxGeometry x="120" y="-195" width="80" height="40" as="geometry" />
        </mxCell>
        <mxCell id="-UZiajmJjqbnYDhWoxUk-5" value="Dados minerados" style="rounded=0;whiteSpace=wrap;html=1;" vertex="1" parent="1">
          <mxGeometry x="120" y="-115" width="80" height="40" as="geometry" />
        </mxCell>
        <mxCell id="-UZiajmJjqbnYDhWoxUk-6" value="Endpoint de chatbots" style="rounded=0;whiteSpace=wrap;html=1;" vertex="1" parent="1">
          <mxGeometry x="120" y="-155" width="80" height="40" as="geometry" />
        </mxCell>
        <mxCell id="-UZiajmJjqbnYDhWoxUk-7" value="Dataset MultiWOZ " style="rounded=0;whiteSpace=wrap;html=1;" vertex="1" parent="1">
          <mxGeometry x="120" y="-75" width="80" height="40" as="geometry" />
        </mxCell>
        <mxCell id="-UZiajmJjqbnYDhWoxUk-8" value="Ferramentas de anotação manual" style="rounded=0;whiteSpace=wrap;html=1;" vertex="1" parent="1">
          <mxGeometry x="320" y="-185" width="110" height="40" as="geometry" />
        </mxCell>
        <mxCell id="-UZiajmJjqbnYDhWoxUk-9" value="&lt;font style=&quot;font-size: 16px;&quot;&gt;...&lt;/font&gt;" style="text;html=1;strokeColor=none;fillColor=none;align=center;verticalAlign=middle;whiteSpace=wrap;rounded=0;dashed=1;fontSize=16;" vertex="1" parent="1">
          <mxGeometry x="130" y="-35" width="60" height="30" as="geometry" />
        </mxCell>
        <mxCell id="-UZiajmJjqbnYDhWoxUk-10" value="Acquisição de Dados" style="text;html=1;strokeColor=none;fillColor=none;align=center;verticalAlign=middle;whiteSpace=wrap;rounded=0;dashed=1;fontSize=16;" vertex="1" parent="1">
          <mxGeometry x="130" y="-235" width="60" height="30" as="geometry" />
        </mxCell>
        <mxCell id="-UZiajmJjqbnYDhWoxUk-11" value="Anotação Assis" style="text;html=1;strokeColor=none;fillColor=none;align=center;verticalAlign=middle;whiteSpace=wrap;rounded=0;dashed=1;fontSize=16;" vertex="1" parent="1">
          <mxGeometry x="351.25" y="-235" width="122.5" height="30" as="geometry" />
        </mxCell>
        <mxCell id="-UZiajmJjqbnYDhWoxUk-12" value="Ferramentas de anotação automática" style="rounded=0;whiteSpace=wrap;html=1;" vertex="1" parent="1">
          <mxGeometry x="320" y="-95" width="110" height="40" as="geometry" />
        </mxCell>
        <mxCell id="-UZiajmJjqbnYDhWoxUk-13" value="" style="endArrow=classic;html=1;rounded=0;fontSize=16;exitX=1;exitY=0.5;exitDx=0;exitDy=0;" edge="1" parent="1" source="-UZiajmJjqbnYDhWoxUk-3" target="-UZiajmJjqbnYDhWoxUk-2">
          <mxGeometry width="50" height="50" relative="1" as="geometry">
            <mxPoint x="280" y="-95" as="sourcePoint" />
            <mxPoint x="330" y="-145" as="targetPoint" />
          </mxGeometry>
        </mxCell>
        <mxCell id="-UZiajmJjqbnYDhWoxUk-14" value="JSON no formato MultiWOZ" style="text;html=1;strokeColor=none;fillColor=none;align=center;verticalAlign=middle;whiteSpace=wrap;rounded=0;dashed=1;fontSize=11;" vertex="1" parent="1">
          <mxGeometry x="230" y="-160" width="60" height="30" as="geometry" />
        </mxCell>
        <mxCell id="-UZiajmJjqbnYDhWoxUk-15" value="" style="endArrow=classic;startArrow=classic;html=1;rounded=0;fontSize=11;entryX=0.5;entryY=1;entryDx=0;entryDy=0;" edge="1" parent="1" source="-UZiajmJjqbnYDhWoxUk-12" target="-UZiajmJjqbnYDhWoxUk-8">
          <mxGeometry width="50" height="50" relative="1" as="geometry">
            <mxPoint x="340" y="-95" as="sourcePoint" />
            <mxPoint x="390" y="-145" as="targetPoint" />
          </mxGeometry>
        </mxCell>
        <mxCell id="-UZiajmJjqbnYDhWoxUk-16" value="Transferência de informação no formato MultiWOZ" style="text;html=1;strokeColor=none;fillColor=none;align=center;verticalAlign=middle;whiteSpace=wrap;rounded=0;dashed=1;fontSize=11;" vertex="1" parent="1">
          <mxGeometry x="380" y="-135" width="116.25" height="30" as="geometry" />
        </mxCell>
        <mxCell id="-UZiajmJjqbnYDhWoxUk-17" value="" style="endArrow=classic;html=1;rounded=0;fontSize=16;exitX=1;exitY=0.5;exitDx=0;exitDy=0;entryX=0;entryY=0.5;entryDx=0;entryDy=0;" edge="1" parent="1" target="-UZiajmJjqbnYDhWoxUk-1">
          <mxGeometry width="50" height="50" relative="1" as="geometry">
            <mxPoint x="520" y="-125.34000000000003" as="sourcePoint" />
            <mxPoint x="560" y="-125" as="targetPoint" />
          </mxGeometry>
        </mxCell>
        <mxCell id="-UZiajmJjqbnYDhWoxUk-18" value="Fase de treinamento e implementação" style="rounded=0;whiteSpace=wrap;html=1;" vertex="1" parent="1">
          <mxGeometry x="610" y="-145" width="110" height="40" as="geometry" />
        </mxCell>
        <mxCell id="-UZiajmJjqbnYDhWoxUk-19" value="Implementação" style="text;html=1;strokeColor=none;fillColor=none;align=center;verticalAlign=middle;whiteSpace=wrap;rounded=0;dashed=1;fontSize=16;" vertex="1" parent="1">
          <mxGeometry x="603.75" y="-235" width="122.5" height="30" as="geometry" />
        </mxCell>
        <mxCell id="-UZiajmJjqbnYDhWoxUk-20" value="JSON anotado no formato MultiWOZ" style="text;html=1;strokeColor=none;fillColor=none;align=center;verticalAlign=middle;whiteSpace=wrap;rounded=0;dashed=1;fontSize=11;" vertex="1" parent="1">
          <mxGeometry x="530" y="-165" width="60" height="30" as="geometry" />
        </mxCell>
        <mxCell id="-UZiajmJjqbnYDhWoxUk-21" value="Não" style="text;html=1;strokeColor=none;fillColor=none;align=center;verticalAlign=middle;whiteSpace=wrap;rounded=0;fontSize=10;" vertex="1" parent="1">
          <mxGeometry x="-1330" y="60" width="30" height="15" as="geometry" />
        </mxCell>
        <mxCell id="-UZiajmJjqbnYDhWoxUk-33" value="Etapa de Importação" style="rounded=0;whiteSpace=wrap;html=1;fontSize=10;strokeColor=default;fillColor=#CCCCCC;" vertex="1" parent="1">
          <mxGeometry x="-1130" width="80" height="40" as="geometry" />
        </mxCell>
        <mxCell id="-UZiajmJjqbnYDhWoxUk-35" value="" style="rounded=1;whiteSpace=wrap;html=1;fontSize=10;strokeColor=default;dashed=1;fillColor=none;" vertex="1" parent="1">
          <mxGeometry x="-1610" y="150" width="550" height="140" as="geometry" />
        </mxCell>
        <mxCell id="-UZiajmJjqbnYDhWoxUk-36" value="Importar entidades" style="rounded=0;whiteSpace=wrap;html=1;fontSize=10;strokeColor=default;" vertex="1" parent="1">
          <mxGeometry x="-1370" y="170" width="80" height="40" as="geometry" />
        </mxCell>
        <mxCell id="-UZiajmJjqbnYDhWoxUk-37" value="Importar intenções" style="rounded=0;whiteSpace=wrap;html=1;fontSize=10;strokeColor=default;" vertex="1" parent="1">
          <mxGeometry x="-1370" y="230" width="80" height="40" as="geometry" />
        </mxCell>
        <mxCell id="-UZiajmJjqbnYDhWoxUk-38" value="" style="edgeStyle=orthogonalEdgeStyle;rounded=0;orthogonalLoop=1;jettySize=auto;html=1;fontSize=9;" edge="1" parent="1" source="-UZiajmJjqbnYDhWoxUk-39" target="-UZiajmJjqbnYDhWoxUk-42">
          <mxGeometry relative="1" as="geometry" />
        </mxCell>
        <mxCell id="-UZiajmJjqbnYDhWoxUk-39" value="Checar formatação Json" style="rounded=0;whiteSpace=wrap;html=1;fontSize=10;strokeColor=default;" vertex="1" parent="1">
          <mxGeometry x="-1590" y="200" width="80" height="40" as="geometry" />
        </mxCell>
        <mxCell id="-UZiajmJjqbnYDhWoxUk-40" value="" style="edgeStyle=orthogonalEdgeStyle;rounded=0;orthogonalLoop=1;jettySize=auto;html=1;fontSize=9;entryX=0;entryY=0.5;entryDx=0;entryDy=0;" edge="1" parent="1" source="-UZiajmJjqbnYDhWoxUk-42" target="-UZiajmJjqbnYDhWoxUk-36">
          <mxGeometry relative="1" as="geometry" />
        </mxCell>
        <mxCell id="-UZiajmJjqbnYDhWoxUk-41" value="" style="edgeStyle=orthogonalEdgeStyle;rounded=0;orthogonalLoop=1;jettySize=auto;html=1;fontSize=9;entryX=0;entryY=0.5;entryDx=0;entryDy=0;" edge="1" parent="1" source="-UZiajmJjqbnYDhWoxUk-42" target="-UZiajmJjqbnYDhWoxUk-37">
          <mxGeometry relative="1" as="geometry">
            <mxPoint x="-1450" y="320" as="targetPoint" />
          </mxGeometry>
        </mxCell>
        <mxCell id="-UZiajmJjqbnYDhWoxUk-42" value="Checar Importar ontologia" style="rounded=0;whiteSpace=wrap;html=1;fontSize=10;strokeColor=default;" vertex="1" parent="1">
          <mxGeometry x="-1490" y="200" width="80" height="40" as="geometry" />
        </mxCell>
        <mxCell id="-UZiajmJjqbnYDhWoxUk-47" value="" style="edgeStyle=orthogonalEdgeStyle;rounded=0;orthogonalLoop=1;jettySize=auto;html=1;fontSize=9;" edge="1" parent="1" source="-UZiajmJjqbnYDhWoxUk-43" target="-UZiajmJjqbnYDhWoxUk-46">
          <mxGeometry relative="1" as="geometry" />
        </mxCell>
        <mxCell id="-UZiajmJjqbnYDhWoxUk-55" value="" style="edgeStyle=orthogonalEdgeStyle;rounded=0;orthogonalLoop=1;jettySize=auto;html=1;fontSize=9;entryX=0;entryY=0.5;entryDx=0;entryDy=0;" edge="1" parent="1" source="-UZiajmJjqbnYDhWoxUk-43" target="-UZiajmJjqbnYDhWoxUk-51">
          <mxGeometry relative="1" as="geometry">
            <mxPoint x="-1110" y="320" as="targetPoint" />
          </mxGeometry>
        </mxCell>
        <mxCell id="-UZiajmJjqbnYDhWoxUk-43" value="Criar metadados em cada dialogo" style="rounded=0;whiteSpace=wrap;html=1;fontSize=10;strokeColor=default;fillColor=#FFFFFF;" vertex="1" parent="1">
          <mxGeometry x="-1150" y="200" width="80" height="40" as="geometry" />
        </mxCell>
        <mxCell id="-UZiajmJjqbnYDhWoxUk-44" value="" style="edgeStyle=orthogonalEdgeStyle;rounded=0;orthogonalLoop=1;jettySize=auto;html=1;fontSize=10;entryX=0;entryY=0.5;entryDx=0;entryDy=0;" edge="1" parent="1">
          <mxGeometry relative="1" as="geometry">
            <mxPoint x="-1250" y="220" as="targetPoint" />
            <Array as="points">
              <mxPoint x="-1270" y="190" />
              <mxPoint x="-1270" y="220" />
            </Array>
            <mxPoint x="-1290" y="190" as="sourcePoint" />
          </mxGeometry>
        </mxCell>
        <mxCell id="-UZiajmJjqbnYDhWoxUk-45" value="" style="edgeStyle=orthogonalEdgeStyle;rounded=0;orthogonalLoop=1;jettySize=auto;html=1;fontSize=10;entryX=0;entryY=0.5;entryDx=0;entryDy=0;" edge="1" parent="1">
          <mxGeometry relative="1" as="geometry">
            <mxPoint x="-1250" y="220" as="targetPoint" />
            <Array as="points">
              <mxPoint x="-1270" y="250" />
              <mxPoint x="-1270" y="220" />
            </Array>
            <mxPoint x="-1290" y="250" as="sourcePoint" />
          </mxGeometry>
        </mxCell>
        <mxCell id="-UZiajmJjqbnYDhWoxUk-46" value="Anotação" style="rounded=0;whiteSpace=wrap;html=1;fontSize=10;strokeColor=default;fillColor=#CCCCCC;" vertex="1" parent="1">
          <mxGeometry x="-1020" y="170" width="80" height="40" as="geometry" />
        </mxCell>
        <mxCell id="-UZiajmJjqbnYDhWoxUk-49" value="" style="edgeStyle=orthogonalEdgeStyle;rounded=0;orthogonalLoop=1;jettySize=auto;html=1;fontSize=10;" edge="1" parent="1" source="-UZiajmJjqbnYDhWoxUk-50">
          <mxGeometry relative="1" as="geometry">
            <mxPoint x="-1590" y="220" as="targetPoint" />
          </mxGeometry>
        </mxCell>
        <mxCell id="-UZiajmJjqbnYDhWoxUk-50" value="Entrada de Dados" style="rounded=0;whiteSpace=wrap;html=1;fontSize=10;strokeColor=default;fillColor=#CCCCCC;" vertex="1" parent="1">
          <mxGeometry x="-1700" y="200" width="80" height="40" as="geometry" />
        </mxCell>
        <mxCell id="-UZiajmJjqbnYDhWoxUk-51" value="Criação de Entidades e Intenções" style="rounded=0;whiteSpace=wrap;html=1;fontSize=10;strokeColor=default;fillColor=#CCCCCC;" vertex="1" parent="1">
          <mxGeometry x="-1020" y="230" width="80" height="40" as="geometry" />
        </mxCell>
        <mxCell id="-UZiajmJjqbnYDhWoxUk-62" value="" style="edgeStyle=orthogonalEdgeStyle;rounded=0;orthogonalLoop=1;jettySize=auto;html=1;fontSize=9;" edge="1" parent="1" source="-UZiajmJjqbnYDhWoxUk-56" target="-UZiajmJjqbnYDhWoxUk-59">
          <mxGeometry relative="1" as="geometry" />
        </mxCell>
        <mxCell id="-UZiajmJjqbnYDhWoxUk-56" value="Etapa de Importação" style="rounded=0;whiteSpace=wrap;html=1;fontSize=10;strokeColor=default;fillColor=#CCCCCC;" vertex="1" parent="1">
          <mxGeometry x="-1710" y="400" width="80" height="40" as="geometry" />
        </mxCell>
        <mxCell id="-UZiajmJjqbnYDhWoxUk-57" value="" style="rounded=1;whiteSpace=wrap;html=1;fontSize=10;strokeColor=default;dashed=1;fillColor=none;" vertex="1" parent="1">
          <mxGeometry x="-1620" y="340" width="250" height="360" as="geometry" />
        </mxCell>
        <mxCell id="-UZiajmJjqbnYDhWoxUk-63" value="" style="edgeStyle=orthogonalEdgeStyle;rounded=0;orthogonalLoop=1;jettySize=auto;html=1;fontSize=9;" edge="1" parent="1" source="-UZiajmJjqbnYDhWoxUk-59" target="-UZiajmJjqbnYDhWoxUk-61">
          <mxGeometry relative="1" as="geometry" />
        </mxCell>
        <mxCell id="-UZiajmJjqbnYDhWoxUk-70" value="" style="edgeStyle=orthogonalEdgeStyle;rounded=0;orthogonalLoop=1;jettySize=auto;html=1;fontSize=9;" edge="1" parent="1" source="-UZiajmJjqbnYDhWoxUk-59">
          <mxGeometry relative="1" as="geometry">
            <mxPoint x="-1480" y="420" as="targetPoint" />
          </mxGeometry>
        </mxCell>
        <mxCell id="-UZiajmJjqbnYDhWoxUk-59" value="Novas int.&lt;br style=&quot;font-size: 9px;&quot;&gt;ou ent. necessárias?" style="rhombus;whiteSpace=wrap;html=1;fontSize=9;" vertex="1" parent="1">
          <mxGeometry x="-1600" y="380" width="80" height="80" as="geometry" />
        </mxCell>
        <mxCell id="-UZiajmJjqbnYDhWoxUk-60" value="Criar intenções" style="rounded=0;whiteSpace=wrap;html=1;fontSize=10;" vertex="1" parent="1">
          <mxGeometry x="-1600" y="520" width="80" height="40" as="geometry" />
        </mxCell>
        <mxCell id="-UZiajmJjqbnYDhWoxUk-61" value="Criar tópicos" style="rounded=0;whiteSpace=wrap;html=1;fontSize=10;" vertex="1" parent="1">
          <mxGeometry x="-1600" y="480" width="80" height="40" as="geometry" />
        </mxCell>
        <mxCell id="-UZiajmJjqbnYDhWoxUk-73" value="" style="edgeStyle=orthogonalEdgeStyle;rounded=0;orthogonalLoop=1;jettySize=auto;html=1;fontSize=9;entryX=0.5;entryY=0;entryDx=0;entryDy=0;" edge="1" parent="1" source="-UZiajmJjqbnYDhWoxUk-64" target="-UZiajmJjqbnYDhWoxUk-59">
          <mxGeometry relative="1" as="geometry">
            <mxPoint x="-1320" y="420" as="targetPoint" />
            <Array as="points">
              <mxPoint x="-1380" y="420" />
              <mxPoint x="-1380" y="360" />
              <mxPoint x="-1560" y="360" />
            </Array>
          </mxGeometry>
        </mxCell>
        <mxCell id="-UZiajmJjqbnYDhWoxUk-74" value="" style="edgeStyle=orthogonalEdgeStyle;rounded=0;orthogonalLoop=1;jettySize=auto;html=1;fontSize=9;" edge="1" parent="1" source="-UZiajmJjqbnYDhWoxUk-64" target="-UZiajmJjqbnYDhWoxUk-71">
          <mxGeometry relative="1" as="geometry" />
        </mxCell>
        <mxCell id="-UZiajmJjqbnYDhWoxUk-64" value="Todos os&lt;br&gt;diálogos&lt;br&gt;anotados?" style="rhombus;whiteSpace=wrap;html=1;fontSize=9;" vertex="1" parent="1">
          <mxGeometry x="-1480" y="380" width="80" height="80" as="geometry" />
        </mxCell>
        <mxCell id="-UZiajmJjqbnYDhWoxUk-81" value="" style="edgeStyle=orthogonalEdgeStyle;rounded=0;orthogonalLoop=1;jettySize=auto;html=1;fontSize=9;" edge="1" parent="1" source="-UZiajmJjqbnYDhWoxUk-65" target="-UZiajmJjqbnYDhWoxUk-80">
          <mxGeometry relative="1" as="geometry" />
        </mxCell>
        <mxCell id="-UZiajmJjqbnYDhWoxUk-65" value="Criar entidades" style="rounded=0;whiteSpace=wrap;html=1;fontSize=10;" vertex="1" parent="1">
          <mxGeometry x="-1600" y="560" width="80" height="40" as="geometry" />
        </mxCell>
        <mxCell id="-UZiajmJjqbnYDhWoxUk-68" value="Sim" style="text;html=1;strokeColor=none;fillColor=none;align=center;verticalAlign=middle;whiteSpace=wrap;rounded=0;fontSize=9;" vertex="1" parent="1">
          <mxGeometry x="-1570" y="450" width="60" height="30" as="geometry" />
        </mxCell>
        <mxCell id="-UZiajmJjqbnYDhWoxUk-69" value="Não" style="text;html=1;strokeColor=none;fillColor=none;align=center;verticalAlign=middle;whiteSpace=wrap;rounded=0;fontSize=9;" vertex="1" parent="1">
          <mxGeometry x="-1540" y="390" width="60" height="30" as="geometry" />
        </mxCell>
        <mxCell id="-UZiajmJjqbnYDhWoxUk-89" value="" style="edgeStyle=orthogonalEdgeStyle;rounded=0;orthogonalLoop=1;jettySize=auto;html=1;fontSize=9;" edge="1" parent="1" source="-UZiajmJjqbnYDhWoxUk-71" target="-UZiajmJjqbnYDhWoxUk-88">
          <mxGeometry relative="1" as="geometry" />
        </mxCell>
        <mxCell id="-UZiajmJjqbnYDhWoxUk-71" value="Salvar e exportar ontologia" style="rounded=0;whiteSpace=wrap;html=1;fontSize=10;" vertex="1" parent="1">
          <mxGeometry x="-1480" y="480" width="80" height="40" as="geometry" />
        </mxCell>
        <mxCell id="-UZiajmJjqbnYDhWoxUk-78" value="" style="edgeStyle=orthogonalEdgeStyle;rounded=0;orthogonalLoop=1;jettySize=auto;html=1;fontSize=9;" edge="1" parent="1" source="-UZiajmJjqbnYDhWoxUk-77" target="-UZiajmJjqbnYDhWoxUk-43">
          <mxGeometry relative="1" as="geometry" />
        </mxCell>
        <mxCell id="-UZiajmJjqbnYDhWoxUk-77" value="Importar dialogos" style="rounded=0;whiteSpace=wrap;html=1;fontSize=10;strokeColor=default;fillColor=#FFFFFF;" vertex="1" parent="1">
          <mxGeometry x="-1250" y="200" width="80" height="40" as="geometry" />
        </mxCell>
        <mxCell id="-UZiajmJjqbnYDhWoxUk-85" value="" style="edgeStyle=orthogonalEdgeStyle;rounded=0;orthogonalLoop=1;jettySize=auto;html=1;fontSize=9;entryX=1;entryY=1;entryDx=0;entryDy=0;" edge="1" parent="1" source="-UZiajmJjqbnYDhWoxUk-80" target="-UZiajmJjqbnYDhWoxUk-69">
          <mxGeometry relative="1" as="geometry">
            <mxPoint x="-1560" y="730" as="targetPoint" />
            <Array as="points">
              <mxPoint x="-1560" y="680" />
              <mxPoint x="-1500" y="680" />
              <mxPoint x="-1500" y="420" />
            </Array>
          </mxGeometry>
        </mxCell>
        <mxCell id="-UZiajmJjqbnYDhWoxUk-80" value="Atualizar metadados" style="rounded=0;whiteSpace=wrap;html=1;fontSize=10;" vertex="1" parent="1">
          <mxGeometry x="-1600" y="620" width="80" height="40" as="geometry" />
        </mxCell>
        <mxCell id="-UZiajmJjqbnYDhWoxUk-86" value="Não" style="text;html=1;strokeColor=none;fillColor=none;align=center;verticalAlign=middle;whiteSpace=wrap;rounded=0;fontSize=9;" vertex="1" parent="1">
          <mxGeometry x="-1430" y="390" width="60" height="30" as="geometry" />
        </mxCell>
        <mxCell id="-UZiajmJjqbnYDhWoxUk-87" value="Sim" style="text;html=1;strokeColor=none;fillColor=none;align=center;verticalAlign=middle;whiteSpace=wrap;rounded=0;fontSize=9;" vertex="1" parent="1">
          <mxGeometry x="-1450" y="450" width="60" height="30" as="geometry" />
        </mxCell>
        <mxCell id="-UZiajmJjqbnYDhWoxUk-88" value="Exportação de dialogos" style="rounded=0;whiteSpace=wrap;html=1;fontSize=10;strokeColor=default;fillColor=#CCCCCC;" vertex="1" parent="1">
          <mxGeometry x="-1355" y="480" width="80" height="40" as="geometry" />
        </mxCell>
        <mxCell id="-UZiajmJjqbnYDhWoxUk-90" value="" style="rounded=1;whiteSpace=wrap;html=1;fontSize=10;strokeColor=default;dashed=1;fillColor=none;" vertex="1" parent="1">
          <mxGeometry x="-1005" y="330" width="535" height="600" as="geometry" />
        </mxCell>
        <mxCell id="-UZiajmJjqbnYDhWoxUk-92" value="" style="edgeStyle=orthogonalEdgeStyle;rounded=0;orthogonalLoop=1;jettySize=auto;html=1;fontSize=9;" edge="1" parent="1" source="-UZiajmJjqbnYDhWoxUk-93" target="-UZiajmJjqbnYDhWoxUk-94">
          <mxGeometry relative="1" as="geometry" />
        </mxCell>
        <mxCell id="-UZiajmJjqbnYDhWoxUk-93" value="Etapa de Importação" style="rounded=0;whiteSpace=wrap;html=1;fontSize=10;strokeColor=default;fillColor=#CCCCCC;" vertex="1" parent="1">
          <mxGeometry x="-1100" y="360" width="80" height="40" as="geometry" />
        </mxCell>
        <mxCell id="-UZiajmJjqbnYDhWoxUk-127" value="" style="edgeStyle=orthogonalEdgeStyle;rounded=0;orthogonalLoop=1;jettySize=auto;html=1;fontSize=9;" edge="1" parent="1" source="-UZiajmJjqbnYDhWoxUk-94" target="-UZiajmJjqbnYDhWoxUk-125">
          <mxGeometry relative="1" as="geometry" />
        </mxCell>
        <mxCell id="-UZiajmJjqbnYDhWoxUk-94" value="Todos&lt;br&gt; dialogos&lt;br&gt;anotados?" style="rhombus;whiteSpace=wrap;html=1;fontSize=9;" vertex="1" parent="1">
          <mxGeometry x="-960" y="340" width="80" height="80" as="geometry" />
        </mxCell>
        <mxCell id="-UZiajmJjqbnYDhWoxUk-95" value="Etapa de Importação" style="text;html=1;strokeColor=none;fillColor=none;align=center;verticalAlign=middle;whiteSpace=wrap;rounded=0;dashed=1;fontSize=10;" vertex="1" parent="1">
          <mxGeometry x="-1390" y="125" width="140" height="30" as="geometry" />
        </mxCell>
        <mxCell id="-UZiajmJjqbnYDhWoxUk-96" value="Etapa de Criação de Entidades e Intenções" style="text;html=1;strokeColor=none;fillColor=none;align=center;verticalAlign=middle;whiteSpace=wrap;rounded=0;dashed=1;fontSize=10;" vertex="1" parent="1">
          <mxGeometry x="-1565" y="310" width="140" height="30" as="geometry" />
        </mxCell>
        <mxCell id="-UZiajmJjqbnYDhWoxUk-97" value="Etapa de Anotação de Dialogos" style="text;html=1;strokeColor=none;fillColor=none;align=center;verticalAlign=middle;whiteSpace=wrap;rounded=0;dashed=1;fontSize=10;" vertex="1" parent="1">
          <mxGeometry x="-790" y="300" width="140" height="30" as="geometry" />
        </mxCell>
        <mxCell id="-UZiajmJjqbnYDhWoxUk-104" value="" style="edgeStyle=orthogonalEdgeStyle;rounded=0;orthogonalLoop=1;jettySize=auto;html=1;fontSize=9;" edge="1" parent="1" source="-UZiajmJjqbnYDhWoxUk-98" target="-UZiajmJjqbnYDhWoxUk-99">
          <mxGeometry relative="1" as="geometry" />
        </mxCell>
        <mxCell id="-UZiajmJjqbnYDhWoxUk-98" value="Selecionar novo diálogo" style="rounded=0;whiteSpace=wrap;html=1;fontSize=10;" vertex="1" parent="1">
          <mxGeometry x="-960" y="620" width="80" height="40" as="geometry" />
        </mxCell>
        <mxCell id="-UZiajmJjqbnYDhWoxUk-103" value="" style="edgeStyle=orthogonalEdgeStyle;rounded=0;orthogonalLoop=1;jettySize=auto;html=1;fontSize=9;" edge="1" parent="1" source="-UZiajmJjqbnYDhWoxUk-99" target="-UZiajmJjqbnYDhWoxUk-100">
          <mxGeometry relative="1" as="geometry" />
        </mxCell>
        <mxCell id="-UZiajmJjqbnYDhWoxUk-111" value="" style="edgeStyle=orthogonalEdgeStyle;rounded=0;orthogonalLoop=1;jettySize=auto;html=1;fontSize=9;" edge="1" parent="1" source="-UZiajmJjqbnYDhWoxUk-99" target="-UZiajmJjqbnYDhWoxUk-101">
          <mxGeometry relative="1" as="geometry" />
        </mxCell>
        <mxCell id="-UZiajmJjqbnYDhWoxUk-99" value="DIalogo vazio&lt;br&gt;ou contém&lt;br&gt;erros?" style="rhombus;whiteSpace=wrap;html=1;fontSize=9;" vertex="1" parent="1">
          <mxGeometry x="-960" y="680" width="80" height="80" as="geometry" />
        </mxCell>
        <mxCell id="-UZiajmJjqbnYDhWoxUk-107" value="" style="edgeStyle=orthogonalEdgeStyle;rounded=0;orthogonalLoop=1;jettySize=auto;html=1;fontSize=9;" edge="1" parent="1" source="-UZiajmJjqbnYDhWoxUk-100">
          <mxGeometry relative="1" as="geometry">
            <mxPoint x="-980" y="620" as="targetPoint" />
            <Array as="points">
              <mxPoint x="-920" y="840" />
              <mxPoint x="-980" y="840" />
              <mxPoint x="-980" y="560" />
            </Array>
          </mxGeometry>
        </mxCell>
        <mxCell id="-UZiajmJjqbnYDhWoxUk-100" value="Marcar atual deletado" style="rounded=0;whiteSpace=wrap;html=1;fontSize=10;" vertex="1" parent="1">
          <mxGeometry x="-960" y="780" width="80" height="40" as="geometry" />
        </mxCell>
        <mxCell id="-UZiajmJjqbnYDhWoxUk-110" value="" style="edgeStyle=orthogonalEdgeStyle;rounded=0;orthogonalLoop=1;jettySize=auto;html=1;fontSize=9;" edge="1" parent="1" source="-UZiajmJjqbnYDhWoxUk-101" target="-UZiajmJjqbnYDhWoxUk-102">
          <mxGeometry relative="1" as="geometry" />
        </mxCell>
        <mxCell id="-UZiajmJjqbnYDhWoxUk-113" value="" style="edgeStyle=orthogonalEdgeStyle;rounded=0;orthogonalLoop=1;jettySize=auto;html=1;fontSize=9;" edge="1" parent="1" source="-UZiajmJjqbnYDhWoxUk-101" target="-UZiajmJjqbnYDhWoxUk-112">
          <mxGeometry relative="1" as="geometry" />
        </mxCell>
        <mxCell id="-UZiajmJjqbnYDhWoxUk-101" value="Todos os turnos anotados?" style="rhombus;whiteSpace=wrap;html=1;fontSize=9;" vertex="1" parent="1">
          <mxGeometry x="-850" y="680" width="80" height="80" as="geometry" />
        </mxCell>
        <mxCell id="-UZiajmJjqbnYDhWoxUk-109" value="" style="edgeStyle=orthogonalEdgeStyle;rounded=0;orthogonalLoop=1;jettySize=auto;html=1;fontSize=9;" edge="1" parent="1" source="-UZiajmJjqbnYDhWoxUk-102">
          <mxGeometry relative="1" as="geometry">
            <mxPoint x="-980" y="610" as="targetPoint" />
            <Array as="points">
              <mxPoint x="-810" y="840" />
              <mxPoint x="-980" y="840" />
              <mxPoint x="-980" y="560" />
            </Array>
          </mxGeometry>
        </mxCell>
        <mxCell id="-UZiajmJjqbnYDhWoxUk-102" value="Marcar atual completo" style="rounded=0;whiteSpace=wrap;html=1;fontSize=10;" vertex="1" parent="1">
          <mxGeometry x="-850" y="780" width="80" height="40" as="geometry" />
        </mxCell>
        <mxCell id="-UZiajmJjqbnYDhWoxUk-115" value="" style="edgeStyle=orthogonalEdgeStyle;rounded=0;orthogonalLoop=1;jettySize=auto;html=1;fontSize=9;" edge="1" parent="1" source="-UZiajmJjqbnYDhWoxUk-112" target="-UZiajmJjqbnYDhWoxUk-114">
          <mxGeometry relative="1" as="geometry" />
        </mxCell>
        <mxCell id="-UZiajmJjqbnYDhWoxUk-112" value="Selecionar novo turno" style="whiteSpace=wrap;html=1;fontSize=9;" vertex="1" parent="1">
          <mxGeometry x="-740" y="700" width="80" height="40" as="geometry" />
        </mxCell>
        <mxCell id="-UZiajmJjqbnYDhWoxUk-117" value="" style="edgeStyle=orthogonalEdgeStyle;rounded=0;orthogonalLoop=1;jettySize=auto;html=1;fontSize=9;" edge="1" parent="1" source="-UZiajmJjqbnYDhWoxUk-114" target="-UZiajmJjqbnYDhWoxUk-116">
          <mxGeometry relative="1" as="geometry" />
        </mxCell>
        <mxCell id="-UZiajmJjqbnYDhWoxUk-114" value="(Opcional) editar turno se houver erros de digitação" style="whiteSpace=wrap;html=1;fontSize=9;" vertex="1" parent="1">
          <mxGeometry x="-740" y="760" width="80" height="40" as="geometry" />
        </mxCell>
        <mxCell id="-UZiajmJjqbnYDhWoxUk-121" value="" style="edgeStyle=orthogonalEdgeStyle;rounded=0;orthogonalLoop=1;jettySize=auto;html=1;fontSize=9;entryX=0.5;entryY=0;entryDx=0;entryDy=0;" edge="1" parent="1" source="-UZiajmJjqbnYDhWoxUk-116" target="-UZiajmJjqbnYDhWoxUk-101">
          <mxGeometry relative="1" as="geometry">
            <mxPoint x="-590" y="850" as="targetPoint" />
            <Array as="points">
              <mxPoint x="-700" y="880" />
              <mxPoint x="-640" y="880" />
              <mxPoint x="-640" y="660" />
              <mxPoint x="-810" y="660" />
            </Array>
          </mxGeometry>
        </mxCell>
        <mxCell id="-UZiajmJjqbnYDhWoxUk-116" value="Anotar entidades, intenções e tópicos" style="whiteSpace=wrap;html=1;fontSize=9;" vertex="1" parent="1">
          <mxGeometry x="-740" y="820" width="80" height="40" as="geometry" />
        </mxCell>
        <mxCell id="-UZiajmJjqbnYDhWoxUk-123" value="" style="rounded=1;whiteSpace=wrap;html=1;fontSize=9;fillColor=none;dashed=1;dashPattern=1 2;" vertex="1" parent="1">
          <mxGeometry x="-395" y="200" width="400" height="270" as="geometry" />
        </mxCell>
        <mxCell id="-UZiajmJjqbnYDhWoxUk-129" value="" style="edgeStyle=orthogonalEdgeStyle;rounded=0;orthogonalLoop=1;jettySize=auto;html=1;fontSize=9;" edge="1" parent="1" source="-UZiajmJjqbnYDhWoxUk-125" target="-UZiajmJjqbnYDhWoxUk-128">
          <mxGeometry relative="1" as="geometry" />
        </mxCell>
        <mxCell id="-UZiajmJjqbnYDhWoxUk-125" value="Anotação automática configurada?" style="rhombus;whiteSpace=wrap;html=1;fontSize=9;" vertex="1" parent="1">
          <mxGeometry x="-960" y="440" width="80" height="80" as="geometry" />
        </mxCell>
        <mxCell id="-UZiajmJjqbnYDhWoxUk-128" value="Batch de N diálogos já anotados?" style="rhombus;whiteSpace=wrap;html=1;fontSize=9;" vertex="1" parent="1">
          <mxGeometry x="-860" y="440" width="80" height="80" as="geometry" />
        </mxCell>
        <mxCell id="-UZiajmJjqbnYDhWoxUk-130" value="Envia diálogos não anotados ao modelo AL" style="rounded=0;whiteSpace=wrap;html=1;fontSize=9;" vertex="1" parent="1">
          <mxGeometry x="-760" y="460" width="80" height="40" as="geometry" />
        </mxCell>
        <mxCell id="-UZiajmJjqbnYDhWoxUk-131" value="Modelo AL aprende com batch e anota X diálogos" style="rounded=0;whiteSpace=wrap;html=1;fontSize=9;" vertex="1" parent="1">
          <mxGeometry x="-660" y="460" width="80" height="40" as="geometry" />
        </mxCell>
        <mxCell id="-UZiajmJjqbnYDhWoxUk-132" value="Operator checks and fixes any errors in annotation" style="rounded=0;whiteSpace=wrap;html=1;fontSize=9;" vertex="1" parent="1">
          <mxGeometry x="-700" y="600" width="80" height="40" as="geometry" />
        </mxCell>
        <mxCell id="-UZiajmJjqbnYDhWoxUk-133" value="Modelo AL aprende com batch e anota X diálogos" style="rounded=0;whiteSpace=wrap;html=1;fontSize=9;" vertex="1" parent="1">
          <mxGeometry x="-560" y="460" width="80" height="40" as="geometry" />
        </mxCell>
      </root>
    </mxGraphModel>
  </diagram>
</mxfile>
